# Blender 4.0.1
# www.blender.org
mtllib kitie.mtl
o Plane
v -1.102314 0.795861 0.069610
v -0.004727 0.800003 1.941926
v -0.020950 0.802316 -1.191314
v 0.976776 0.798875 0.081794
v -1.102314 0.795861 0.069610
v -0.004727 0.800003 1.941926
v -0.004727 0.800003 1.941926
v -0.004727 0.800003 1.941926
vn -0.0015 1.0000 0.0007
vn -0.0000 1.0000 -0.0000
vt 0.000000 0.000000
vt 1.000000 0.000000
vt 1.000000 1.000000
vt 0.000000 1.000000
s 0
usemtl Material.001
f 1/1/1 2/2/1 4/3/1 3/4/1
f 2/2/2 1/1/2 5/1/2 6/2/2
f 2/2/2 6/2/2 8/2/2 7/2/2
